<mxfile host="65bd71144e">
    <diagram id="EqcC_PQiKCXsMEn5SBmV" name="Page-1">
        <mxGraphModel dx="880" dy="578" grid="1" gridSize="10" guides="1" tooltips="1" connect="1" arrows="1" fold="1" page="1" pageScale="1" pageWidth="850" pageHeight="1100" math="0" shadow="0">
            <root>
                <mxCell id="0"/>
                <mxCell id="1" parent="0"/>
                <mxCell id="17" value="" style="rounded=0;whiteSpace=wrap;html=1;dashed=1;" parent="1" vertex="1">
                    <mxGeometry x="220" y="120" width="480" height="260" as="geometry"/>
                </mxCell>
                <mxCell id="2" value="Presentation Tier" style="rounded=0;whiteSpace=wrap;html=1;fontSize=16;" parent="1" vertex="1">
                    <mxGeometry x="240" y="140" width="440" height="60" as="geometry"/>
                </mxCell>
                <mxCell id="3" value="Logic Tier" style="rounded=0;whiteSpace=wrap;html=1;fontSize=16;" parent="1" vertex="1">
                    <mxGeometry x="240" y="220" width="440" height="60" as="geometry"/>
                </mxCell>
                <mxCell id="4" value="External Services" style="rounded=0;whiteSpace=wrap;html=1;fontSize=16;" parent="1" vertex="1">
                    <mxGeometry x="240" y="300" width="200" height="60" as="geometry"/>
                </mxCell>
                <mxCell id="5" value="Data Tier" style="rounded=0;whiteSpace=wrap;html=1;fontSize=16;" parent="1" vertex="1">
                    <mxGeometry x="480" y="300" width="200" height="60" as="geometry"/>
                </mxCell>
                <mxCell id="6" value="Azure DevOps&lt;br style=&quot;font-size: 16px;&quot;&gt;REST API" style="rounded=0;whiteSpace=wrap;html=1;fontSize=16;" parent="1" vertex="1">
                    <mxGeometry x="240" y="400" width="200" height="60" as="geometry"/>
                </mxCell>
                <mxCell id="7" value="PostgreSQL&lt;br style=&quot;font-size: 16px;&quot;&gt;Database" style="rounded=0;whiteSpace=wrap;html=1;fontSize=16;" parent="1" vertex="1">
                    <mxGeometry x="480" y="400" width="200" height="60" as="geometry"/>
                </mxCell>
                <mxCell id="15" value="Web Application" style="rounded=0;whiteSpace=wrap;html=1;fontSize=16;" parent="1" vertex="1">
                    <mxGeometry x="240" y="40" width="440" height="60" as="geometry"/>
                </mxCell>
                <mxCell id="18" value="" style="endArrow=none;html=1;exitX=0.5;exitY=1;exitDx=0;exitDy=0;entryX=0.5;entryY=0;entryDx=0;entryDy=0;" parent="1" source="4" target="6" edge="1">
                    <mxGeometry width="50" height="50" relative="1" as="geometry">
                        <mxPoint x="390" y="470" as="sourcePoint"/>
                        <mxPoint x="440" y="420" as="targetPoint"/>
                    </mxGeometry>
                </mxCell>
                <mxCell id="19" value="" style="endArrow=none;html=1;exitX=0.5;exitY=1;exitDx=0;exitDy=0;entryX=0.5;entryY=0;entryDx=0;entryDy=0;" parent="1" source="5" target="7" edge="1">
                    <mxGeometry width="50" height="50" relative="1" as="geometry">
                        <mxPoint x="375" y="470" as="sourcePoint"/>
                        <mxPoint x="375" y="500" as="targetPoint"/>
                    </mxGeometry>
                </mxCell>
                <mxCell id="20" value="" style="endArrow=none;html=1;exitX=0.5;exitY=1;exitDx=0;exitDy=0;entryX=0.5;entryY=0;entryDx=0;entryDy=0;" parent="1" source="15" target="2" edge="1">
                    <mxGeometry width="50" height="50" relative="1" as="geometry">
                        <mxPoint x="535" y="310" as="sourcePoint"/>
                        <mxPoint x="535" y="340" as="targetPoint"/>
                    </mxGeometry>
                </mxCell>
            </root>
        </mxGraphModel>
    </diagram>
</mxfile>